<?xml version="1.0" encoding="UTF-8"?>
<svg version="1.1" xmlns="http://www.w3.org/2000/svg" width="428" height="321">
<path d="M0 0 C22.2971291 18.81892341 36.60590222 41.92529316 39.9375 71.3125 C41.54743334 100.31971074 34.35834257 124.85525606 16.9375 148.3125 C17.49211914 148.29155273 18.04673828 148.27060547 18.61816406 148.24902344 C21.14109023 148.16566452 23.66372649 148.11378132 26.1875 148.0625 C27.06019531 148.02898437 27.93289063 147.99546875 28.83203125 147.9609375 C35.30413304 147.86212679 35.30413304 147.86212679 38.546875 150.16796875 C39.9375 152.3125 39.9375 152.3125 39.9375 154.875 C38.67628862 157.94920273 37.85628093 158.70579208 34.9375 160.3125 C31.96221138 160.56953045 29.20413022 160.6621991 26.234375 160.60546875 C25.39658508 160.60122391 24.55879517 160.59697906 23.69561768 160.59260559 C21.02591498 160.57584408 18.35697363 160.53819711 15.6875 160.5 C13.87501092 160.48494987 12.06250998 160.47126203 10.25 160.45898438 C5.81220769 160.42594889 1.37498283 160.37418443 -3.0625 160.3125 C-3.13660727 154.67084639 -3.19108167 149.02947553 -3.22729492 143.38745117 C-3.2423898 141.46780462 -3.26286773 139.5481926 -3.28881836 137.62866211 C-3.32517109 134.87084436 -3.34221912 132.1134822 -3.35546875 129.35546875 C-3.37095261 128.49600143 -3.38643646 127.63653412 -3.40238953 126.75102234 C-3.40272942 125.55011711 -3.40272942 125.55011711 -3.40307617 124.32495117 C-3.41306892 123.26905037 -3.41306892 123.26905037 -3.42326355 122.19181824 C-2.94334856 119.69180684 -2.10754625 118.79657076 -0.0625 117.3125 C3.5625 117.5 3.5625 117.5 6.9375 118.3125 C8.05573815 120.54897631 8.13146061 121.96141529 8.25390625 124.4453125 C8.31674805 125.65380859 8.31674805 125.65380859 8.38085938 126.88671875 C8.42017578 127.72847656 8.45949219 128.57023438 8.5 129.4375 C8.54318359 130.28699219 8.58636719 131.13648438 8.63085938 132.01171875 C8.73704236 134.11178223 8.83778497 136.21211948 8.9375 138.3125 C24.02674577 115.6339886 31.67889336 91.04537604 26.22265625 63.734375 C20.31252878 39.48509663 7.46837819 19.12048131 -13.70703125 5.34765625 C-35.3880704 -7.80231045 -60.24864405 -11.84210137 -84.91015625 -6.23974609 C-100.1722397 -2.32381679 -113.30120054 4.88198978 -125.0625 15.3125 C-125.76117188 15.91578125 -126.45984375 16.5190625 -127.1796875 17.140625 C-143.1972902 31.93600098 -151.01430715 53.22916614 -154.0625 74.3125 C-158.0225 74.3125 -161.9825 74.3125 -166.0625 74.3125 C-163.91771052 52.03229886 -156.31656755 32.67322329 -142.0625 15.3125 C-141.52367187 14.60996094 -140.98484375 13.90742187 -140.4296875 13.18359375 C-125.68919342 -5.1494328 -100.58193512 -17.70473872 -77.44140625 -20.4765625 C-49.25947101 -22.97545331 -22.70336989 -17.3657016 0 0 Z " fill="#000000" transform="translate(370.0625,24.6875)"/>
<path d="M0 0 C2.9375 0.375 2.9375 0.375 4.9375 2.375 C5.2159729 4.66555786 5.2159729 4.66555786 5.25634766 7.55908203 C5.27621735 8.64005157 5.29608704 9.72102112 5.31655884 10.83474731 C5.32811005 12.00560883 5.33966125 13.17647034 5.3515625 14.3828125 C5.37092865 15.57856903 5.3902948 16.77432556 5.4102478 18.00631714 C5.47017944 21.83747148 5.5164836 25.66865565 5.5625 29.5 C5.60066724 32.09246125 5.63971821 34.68490966 5.6796875 37.27734375 C5.7758921 43.64311537 5.86089961 50.00896395 5.9375 56.375 C7.37585205 56.404729 7.37585205 56.404729 8.84326172 56.43505859 C12.39561553 56.51104145 15.94755576 56.5997693 19.49951172 56.69238281 C21.03784021 56.73070301 22.57625925 56.76555056 24.11474609 56.796875 C26.32422276 56.84246059 28.53307448 56.9004634 30.7421875 56.9609375 C31.43182587 56.97248871 32.12146423 56.98403992 32.83200073 56.99594116 C37.70975659 57.14725659 37.70975659 57.14725659 39.9375 59.375 C40.49807727 64.64442634 40.49807727 64.64442634 38.65904236 67.04115295 C35.65479586 69.36883621 31.90581027 68.82158779 28.25390625 68.80859375 C26.97603493 68.81645653 26.97603493 68.81645653 25.67234802 68.82447815 C23.87101328 68.83090004 22.06963661 68.82955917 20.26831055 68.82104492 C17.51339911 68.81254136 14.76056553 68.84128169 12.00585938 68.87304688 C10.25520895 68.87465916 8.50455486 68.87408083 6.75390625 68.87109375 C5.93088516 68.88232773 5.10786407 68.89356171 4.25990295 68.90513611 C3.48907883 68.89575516 2.7182547 68.88637421 1.92407227 68.87670898 C1.24917252 68.87654282 0.57427277 68.87637665 -0.12107849 68.87620544 C-3.05922071 68.11768244 -4.24026454 66.764806 -6.0625 64.375 C-6.56370544 61.64306641 -6.56370544 61.64306641 -6.56420898 58.4765625 C-6.57358994 57.28853027 -6.58297089 56.10049805 -6.59263611 54.87646484 C-6.58140213 53.59723145 -6.57016815 52.31799805 -6.55859375 51 C-6.5607766 49.02507568 -6.5607766 49.02507568 -6.56300354 47.01025391 C-6.56438658 44.22603323 -6.55184664 41.4423283 -6.52905273 38.65820312 C-6.50066742 35.09365852 -6.50340621 31.52997055 -6.51614285 27.96536255 C-6.52477966 24.56015228 -6.50965088 21.15519583 -6.49609375 17.75 C-6.50049721 15.8311499 -6.50049721 15.8311499 -6.50498962 13.87353516 C-6.49230545 12.68550293 -6.47962128 11.4974707 -6.46655273 10.2734375 C-6.46114975 9.22849121 -6.45574677 8.18354492 -6.45018005 7.10693359 C-5.81908368 2.65967515 -4.53474733 0.55527518 0 0 Z " fill="#000000" transform="translate(307.0625,42.625)"/>
<path d="M0 0 C1.875 1.125 1.875 1.125 3 3 C3.39365568 6.14924548 3.52854531 8.11909116 1.875 10.875 C-0.88090884 12.52854531 -2.85075452 12.39365568 -6 12 C-7.875 10.875 -7.875 10.875 -9 9 C-9.39365568 5.85075452 -9.52854531 3.88090884 -7.875 1.125 C-5.11909116 -0.52854531 -3.14924548 -0.39365568 0 0 Z " fill="#000000" transform="translate(41,113)"/>
<path d="M0 0 C1.04356122 0.00464581 1.04356122 0.00464581 2.10820448 0.00938547 C2.84621405 0.00485435 3.58422361 0.00032324 4.3445971 -0.00434518 C6.83044764 -0.01705817 9.31608103 -0.0153644 11.80196059 -0.01371634 C13.57899696 -0.01969732 15.35603073 -0.02650186 17.13306105 -0.03407156 C21.96984761 -0.05178319 26.80656348 -0.05642912 31.64337933 -0.05770314 C35.67679805 -0.05959898 39.71020018 -0.06695292 43.74361253 -0.07404733 C53.25769929 -0.09034869 62.77174819 -0.09521471 72.28584731 -0.09379447 C82.10953706 -0.09259274 91.93300722 -0.11369675 101.75664139 -0.14528179 C110.18216274 -0.17140914 118.60761223 -0.18216324 127.0331738 -0.18088365 C132.06916104 -0.18037294 137.10495325 -0.18611551 142.14090025 -0.20723975 C146.87693875 -0.22656247 151.61259501 -0.22678767 156.34864676 -0.21220648 C158.08853584 -0.2101098 159.82844846 -0.21487015 161.56829703 -0.2269274 C163.94069543 -0.24230539 166.31176361 -0.23312249 168.68413222 -0.21766531 C169.37537825 -0.22795244 170.06662429 -0.23823957 170.77881718 -0.24883842 C174.0332109 -0.20186512 175.78752252 0.10611581 178.45009482 2.03494203 C180.19293503 4.51878016 180.52506884 5.64579992 180.53108656 8.64119089 C180.54236586 9.50756677 180.55364516 10.37394266 180.56526625 11.26657236 C180.55716933 12.20903314 180.5490724 13.15149393 180.54073012 14.12251413 C180.5477394 15.12129083 180.55474867 16.12006753 180.56197035 17.1491102 C180.57958329 20.45237616 180.56791544 23.75478624 180.55440199 27.058061 C180.55709595 29.35204868 180.56097756 31.64603525 180.56599867 33.94001901 C180.57189821 38.74851987 180.56331578 43.55672358 180.54463637 48.36518991 C180.52184694 54.53267955 180.53496753 60.69947296 180.55892622 66.86693704 C180.57337165 71.60411465 180.56878389 76.34112686 180.55841506 81.07830942 C180.55574432 83.35253104 180.55902967 85.62676761 180.56833327 87.90097177 C180.57847783 91.07808919 180.5630261 94.25407488 180.54073012 97.43110788 C180.54882704 98.37356866 180.55692397 99.31602945 180.56526625 100.28704965 C180.48315432 106.59416207 180.48315432 106.59416207 178.28378737 109.8580488 C175.71860812 111.46794105 174.34567281 111.78997122 171.33540785 111.82270944 C169.90409529 111.85224962 169.90409529 111.85224962 168.44386733 111.88238657 C167.3859297 111.88364038 166.32799208 111.88489419 165.23799574 111.886186 C164.09038771 111.90294885 162.94277968 111.9197117 161.76039565 111.93698251 C158.51692443 111.97884996 155.27395253 112.00200502 152.03025877 112.01604211 C149.24836401 112.03051729 146.46665132 112.05791062 143.68485415 112.08487928 C135.48287059 112.16323585 127.28092334 112.20431749 119.07864535 112.2364372 C111.2885608 112.26812961 103.49866532 112.31815955 95.70869887 112.37104928 C82.67434304 112.45817455 69.64002913 112.51673478 56.6054579 112.55989206 C51.33477847 112.57776528 46.06423619 112.60396456 40.79362929 112.63679636 C34.49646806 112.67499837 28.19955267 112.69299699 21.9022795 112.69601381 C19.5478911 112.70037066 17.19350451 112.71163661 14.8391844 112.7300905 C11.59252291 112.75430169 8.34677952 112.75366218 5.10005629 112.74678171 C3.66935506 112.76600246 3.66935506 112.76600246 2.20975077 112.78561151 C-2.00389816 112.75230653 -4.39317872 112.61301236 -8.10665452 110.47400033 C-9.97684801 108.276811 -9.97684801 108.276811 -9.97684801 104.651811 C-8.97684801 101.276811 -8.97684801 101.276811 -5.97684801 99.276811 C-2.82021654 99.01179636 -2.82021654 99.01179636 1.12495863 98.98970163 C2.20344321 98.97945207 2.20344321 98.97945207 3.30371535 98.96899545 C4.86368176 98.95541291 6.42369263 98.94635611 7.98370993 98.94128549 C10.45042041 98.93300355 12.91675941 98.91250706 15.38336623 98.88874948 C21.50786467 98.83230765 27.63245311 98.79708727 33.75709975 98.76112497 C38.93442341 98.72992555 44.11156638 98.69077337 49.28874457 98.64087045 C51.72286666 98.62075063 54.15685029 98.61247301 56.59103835 98.60456979 C58.07761072 98.59160227 59.56417841 98.57808268 61.05073988 98.56392038 C62.3518521 98.55662912 63.65296431 98.54933786 64.99350417 98.54182565 C68.13435247 98.59414316 68.13435247 98.59414316 70.02315199 96.276811 C70.35648533 93.776811 70.35648533 93.776811 70.02315199 91.276811 C67.51043697 88.76409598 65.97952718 89.03548059 62.55145705 89.00894296 C61.78882048 89.01306695 61.02618392 89.01719095 60.24043715 89.02143991 C59.43702391 89.01781946 58.63361067 89.014199 57.80585158 89.01046884 C56.05814307 89.00356592 54.31041296 89.00107108 52.56269133 89.00241601 C49.79727707 89.0033787 47.03225425 88.99046973 44.26689589 88.97343576 C36.40345238 88.92708492 28.54004763 88.90255413 20.67647231 88.89595163 C15.86943008 88.89094154 11.06279494 88.86671558 6.25589049 88.83062494 C4.42268627 88.82081338 2.58942613 88.81850237 0.75620329 88.82379663 C-1.80808924 88.83085399 -4.37116645 88.81361287 -6.9353441 88.79097116 C-8.07322626 88.80322984 -8.07322626 88.80322984 -9.23409593 88.81573617 C-12.6830597 88.76150352 -14.64954491 88.51295377 -17.479442 86.47123849 C-18.97684801 84.276811 -18.97684801 84.276811 -18.97684801 80.651811 C-17.97684801 77.276811 -17.97684801 77.276811 -16.21490419 76.08327806 C-13.72325194 75.18542953 -11.81374542 75.01582134 -9.16794908 74.9983381 C-8.20323686 74.98717462 -7.23852464 74.97601114 -6.24457872 74.96450937 C-4.66717409 74.96126909 -4.66717409 74.96126909 -3.05790269 74.95796335 C-1.94541154 74.94791772 -0.83292039 74.9378721 0.31328261 74.92752206 C3.99260879 74.8966168 7.67186195 74.8796343 11.35127699 74.8627485 C13.90147466 74.84404279 16.4516661 74.82446983 19.00185072 74.8040632 C25.02949073 74.75792643 31.05712367 74.72054085 37.08484399 74.68739033 C43.94822591 74.64915593 50.81151318 74.59974924 57.6748153 74.54940617 C71.79085732 74.44611365 85.90696031 74.35684457 100.02315199 74.276811 C100.06440199 72.998061 100.10565199 71.719311 100.14815199 70.401811 C100.17135512 69.68251413 100.19455824 68.96321725 100.21846449 68.2221235 C100.20646888 66.03817455 100.20646888 66.03817455 98.02315199 64.276811 C95.40877163 63.96715155 95.40877163 63.96715155 92.30479872 64.01179636 C91.0877777 64.00352319 89.87075667 63.99525003 88.61685622 63.98672616 C87.26091433 63.98755083 85.90497254 63.98854849 84.5490309 63.98970163 C83.12666871 63.98367997 81.70431008 63.97675637 80.28195632 63.96899545 C77.21480825 63.95408404 74.14772554 63.94535165 71.08054411 63.94128549 C66.23170618 63.93458393 61.38300828 63.9128432 56.53422987 63.88874948 C46.23890335 63.8397265 35.94354716 63.80744824 25.64815199 63.776811 C14.54136966 63.7437431 3.43464191 63.70782696 -7.6720562 63.65268028 C-12.49300233 63.62931551 -17.31385152 63.6155865 -22.13484871 63.60918558 C-25.13420367 63.60325033 -28.13348001 63.58915658 -31.13279474 63.57284105 C-32.52435541 63.56696099 -33.91593529 63.56449368 -35.30750787 63.56568086 C-37.20653069 63.56683914 -39.10554775 63.55467514 -41.00452745 63.54182565 C-42.0675225 63.53889253 -43.13051755 63.53595941 -44.22572458 63.53293741 C-47.03476995 63.27141854 -48.67849282 62.90186853 -50.97684801 61.276811 C-51.97684801 57.901811 -51.97684801 57.901811 -51.97684801 54.276811 C-50.50515306 52.07664621 -50.50515306 52.07664621 -47.97684801 50.276811 C-45.02958174 49.91304301 -42.46547732 49.7900675 -39.52396715 49.85444772 C-38.24766687 49.85839044 -38.24766687 49.85839044 -36.94558275 49.86241281 C-34.13393678 49.87539115 -31.32338053 49.91625427 -28.51200426 49.9564985 C-26.55672959 49.9690417 -24.60144069 49.9795211 -22.64614427 49.98802316 C-17.49725135 50.01463461 -12.3488325 50.06349562 -7.20017564 50.11872995 C1.03723854 50.20494229 9.27477806 50.26444714 17.51250327 50.3108114 C20.38927488 50.33124128 23.26565676 50.36534612 26.14227736 50.40080392 C27.90847357 50.41446305 29.67467327 50.42768045 31.4408766 50.44038522 C32.63878325 50.46059732 32.63878325 50.46059732 33.86089003 50.48121774 C38.00899796 50.49817466 41.34666928 50.2932327 45.02315199 48.276811 C46.10360735 45.96154953 46.07028288 44.60672721 45.71065199 42.089311 C45.17995585 40.07284584 45.17995585 40.07284584 43.02315199 39.276811 C40.29065201 39.09827598 37.57518271 38.97249086 34.83955824 38.88227975 C33.17350574 38.81350588 31.50749085 38.74381605 29.84151137 38.67329538 C27.21041081 38.56584832 24.57960771 38.46411354 21.94771254 38.37812936 C19.41062484 38.29280716 16.87551996 38.18330071 14.33955824 38.06977975 C13.55198637 38.04981439 12.76441451 38.02984903 11.95297682 38.00927866 C6.51814871 37.7389632 6.51814871 37.7389632 3.99947035 35.38740671 C3.02315199 33.276811 3.02315199 33.276811 3.08565199 30.714311 C4.24336843 27.70424828 5.27782713 26.92723114 8.02315199 25.276811 C10.5787245 24.89154184 10.5787245 24.89154184 13.4943434 24.87617624 C14.58872725 24.86283746 15.6831111 24.84949869 16.8106581 24.83575571 C18.57486601 24.83558198 18.57486601 24.83558198 20.37471449 24.83540475 C21.58509383 24.8221969 22.79547316 24.80898904 24.04253066 24.79538095 C27.91109465 24.75444566 31.77942017 24.73279526 35.64815199 24.714311 C39.52395301 24.69056693 43.39952798 24.66253002 47.27519667 24.62252939 C49.68789724 24.59807002 52.10071837 24.58329496 54.51353896 24.57891977 C56.14565825 24.56363985 56.14565825 24.56363985 57.81074965 24.54805124 C59.25159422 24.54163866 59.25159422 24.54163866 60.72154677 24.53509653 C63.21866662 24.49718947 63.21866662 24.49718947 65.02315199 22.276811 C65.30917361 18.13171668 65.30917361 18.13171668 64.02315199 14.276811 C60.68944903 13.16557668 58.18410733 13.14553062 54.67158949 13.1349653 C53.36012953 13.12793085 52.04866957 13.12089639 50.6974684 13.11364877 C49.99696364 13.11183288 49.29645888 13.11001699 48.5747267 13.10814607 C46.38084324 13.10097316 44.18718246 13.08530229 41.99336684 13.06680429 C35.75658075 13.01436143 29.51991967 12.96632617 23.28291762 12.95088327 C19.46667602 12.94081482 15.65099926 12.91152546 11.83498061 12.86956346 C10.38055624 12.85723699 8.92605218 12.85213522 7.47157729 12.85436189 C5.43922931 12.85670847 3.40690317 12.83239403 1.37471449 12.8068403 C0.21794203 12.80097406 -0.93883043 12.79510782 -2.1306566 12.78906381 C-4.97684801 12.276811 -4.97684801 12.276811 -6.88553941 10.43899667 C-8.42679405 7.38534283 -7.88975334 5.50709141 -6.97684801 2.276811 C-4.55730896 -0.14272804 -3.30181891 0.03369105 0 0 Z " fill="#000000" transform="translate(59.976848006248474,112.723188996315)"/>
<path d="M0 0 C0.86367188 -0.01224609 1.72734375 -0.02449219 2.6171875 -0.03710938 C3.4525 -0.03904297 4.2878125 -0.04097656 5.1484375 -0.04296875 C6.2919165 -0.04913208 6.2919165 -0.04913208 7.45849609 -0.05541992 C9.96695733 0.22584207 11.52878154 0.78054756 13.625 2.1875 C14.625 5.5625 14.625 5.5625 14.625 9.1875 C13.25 11.38671875 13.25 11.38671875 10.625 13.1875 C7.2813774 13.75646498 4.00822906 13.69991436 0.625 13.625 C-0.27734375 13.63208984 -1.1796875 13.63917969 -2.109375 13.64648438 C-6.9508313 13.59993191 -9.64551814 13.53878523 -13.375 10.1875 C-14.3125 8.3125 -14.3125 8.3125 -14.375 6.1875 C-10.94376815 -0.8383557 -7.09210518 0.00524564 0 0 Z " fill="#000000" transform="translate(41.375,137.8125)"/>
<path d="M0 0 C1.91283783 -0.01902626 1.91283783 -0.01902626 3.86431885 -0.03843689 C5.25427411 -0.03638465 6.64422826 -0.03339595 8.03417969 -0.02954102 C9.46661628 -0.03410506 10.89905069 -0.0394113 12.33148193 -0.04542542 C15.33419687 -0.05435682 18.3366459 -0.05193555 21.33935547 -0.04199219 C25.17038952 -0.0305369 29.0004971 -0.05065954 32.83140945 -0.07990932 C35.79131829 -0.098345 38.75100849 -0.09796376 41.71096039 -0.0922718 C43.12223352 -0.0921193 44.53352215 -0.09810465 45.9447403 -0.11056328 C53.89649411 -0.1708447 60.0102786 -0.13435152 66.70605469 4.40405273 C68.52734375 6.25585938 68.52734375 6.25585938 69.72167969 8.25170898 C70.43807617 9.43531006 70.43807617 9.43531006 71.16894531 10.64282227 C74.33983094 16.33893351 77.430002 22.06760294 80.45605469 27.84155273 C81.86748815 30.52002864 83.2823076 33.19670394 84.69824219 35.87280273 C85.04343903 36.52598984 85.38863586 37.17917694 85.74429321 37.85215759 C88.97069221 43.93993979 92.318554 49.95820388 95.78710938 55.91162109 C96.1496582 56.54720947 96.51220703 57.18279785 96.88574219 57.83764648 C97.19237793 58.36414795 97.49901367 58.89064941 97.81494141 59.43310547 C101.01656971 66.51440556 100.99903246 73.12188547 100.97167969 80.79467773 C100.97359314 81.97624451 100.97550659 83.15781128 100.97747803 84.37518311 C100.97883491 86.8629986 100.97517331 89.35082129 100.96679688 91.83862305 C100.9560524 95.65486407 100.96672889 99.47063842 100.97949219 103.28686523 C100.97817125 105.70613711 100.97561023 108.12540869 100.97167969 110.54467773 C100.97572815 111.68841858 100.97977661 112.83215942 100.98394775 114.01055908 C100.97449127 115.59800934 100.97449127 115.59800934 100.96484375 117.2175293 C100.96325256 118.14905823 100.96166138 119.08058716 100.96002197 120.04034424 C100.70605469 122.40405273 100.70605469 122.40405273 98.70605469 125.40405273 C93.23331815 126.41638629 88.1762256 126.44493546 82.70605469 125.40405273 C79.60931748 122.58258105 78.394682 119.18235634 76.70605469 115.40405273 C70.84498509 106.66880477 62.57117253 102.09931356 52.75683594 98.73608398 C39.54739315 96.5974123 27.72246649 98.90798433 16.76855469 106.71264648 C10.39588053 111.93872207 6.45100226 118.1411241 2.70605469 125.40405273 C-2.57394531 125.40405273 -7.85394531 125.40405273 -13.29394531 125.40405273 C-13.36933831 104.85527275 -13.20186457 84.30775624 -13.00641251 63.76005173 C-12.9560389 58.45505153 -12.90958037 53.15007885 -12.87207031 47.8449707 C-12.83521722 42.64305762 -12.78892647 37.44130865 -12.73588181 32.23953629 C-12.71742446 30.2740168 -12.70228495 28.30846312 -12.69060135 26.34289169 C-12.67372436 23.61164051 -12.64470782 20.88076934 -12.61279297 18.1496582 C-12.61063278 17.34866699 -12.6084726 16.54767578 -12.60624695 15.72241211 C-12.52756915 10.45302277 -12.3454283 5.59547201 -8.56231689 1.55430603 C-5.57896113 0.04149621 -3.34305724 0.01610269 0 0 Z M7.70605469 15.40405273 C7.63171674 21.27560681 7.57736352 27.14688493 7.54125977 33.01879883 C7.5262037 35.01494114 7.50575442 37.01105055 7.47973633 39.00708008 C7.44321308 41.88167459 7.42629631 44.75583046 7.41308594 47.63061523 C7.39760208 48.51834625 7.38211823 49.40607727 7.36616516 50.32070923 C7.36479907 55.38744527 7.64073305 59.15008764 10.70605469 63.40405273 C14.97369338 65.97892603 18.12299893 66.7749694 23.07861328 66.74462891 C24.31944672 66.74440231 25.56028015 66.74417572 26.8387146 66.74394226 C28.17731088 66.72862608 29.51590339 66.71297816 30.85449219 66.69702148 C32.23596738 66.69141994 33.61744858 66.68715248 34.99893188 66.68415833 C38.61908685 66.67275332 42.23887556 66.64332443 45.85888672 66.61004639 C49.55919441 66.57925114 53.25956179 66.56563288 56.95996094 66.55053711 C64.20882507 66.51844981 71.45738838 66.46730704 78.70605469 66.40405273 C73.9078692 56.7508518 69.10217375 47.10199201 64.07836914 37.5637207 C63.44740742 36.35914243 62.82253755 35.15135628 62.20336914 33.94067383 C58.59889257 26.90011045 55.38555856 20.93118378 48.70605469 16.40405273 C44.6058835 15.08495777 40.48541076 15.27849391 36.22167969 15.30639648 C35.40608582 15.30781143 34.59049194 15.30922638 33.75018311 15.3106842 C31.15210257 15.3162697 28.55410906 15.32881953 25.95605469 15.34155273 C24.19173302 15.34656961 22.42740999 15.35113219 20.66308594 15.35522461 C16.34404213 15.36623438 12.02506315 15.38348904 7.70605469 15.40405273 Z " fill="#000000" transform="translate(261.2939453125,138.595947265625)"/>
<path d="M0 0 C0.86625 -0.00773438 1.7325 -0.01546875 2.625 -0.0234375 C5.44119416 0.44901613 6.33474734 1.08662054 8 3.375 C8.64005506 8.49544047 8.64005506 8.49544047 6.7890625 11.0390625 C4.42823923 12.801948 2.92272562 12.77609576 0 12.75 C-0.86625 12.75773438 -1.7325 12.76546875 -2.625 12.7734375 C-5.44119416 12.30098387 -6.33474734 11.66337946 -8 9.375 C-8.64005506 4.25455953 -8.64005506 4.25455953 -6.7890625 1.7109375 C-4.42823923 -0.051948 -2.92272562 -0.02609576 0 0 Z " fill="#000000" transform="translate(23,188.625)"/>
<path d="M0 0 C57.75 0 115.5 0 175 0 C175 10.56 175 21.12 175 32 C154.21 32 133.42 32 112 32 C110.35 28.7 108.7 25.4 107 22 C100.50395241 13.11764921 91.77644739 7.47519702 81 5 C68.56603333 3.88959384 56.75779864 5.06940009 46.8046875 13.30859375 C40.81630741 18.92107985 36.86423583 24.79763588 33 32 C28.41678618 32.08704 23.83378466 32.14040632 19.25 32.1875 C17.29707031 32.22520508 17.29707031 32.22520508 15.3046875 32.26367188 C14.05429688 32.27333984 12.80390625 32.28300781 11.515625 32.29296875 C10.36352539 32.3086792 9.21142578 32.32438965 8.02441406 32.34057617 C4.68462782 31.96448626 3.34641019 31.36613664 1 29 C-2.05868527 19.8239442 0 9.67241209 0 0 Z " fill="#000000" transform="translate(65,232)"/>
<path d="M0 0 C6.81704992 5.70776665 10.53884888 11.71810913 13.328125 20.0859375 C14.18291862 32.43139943 13.37335668 41.55077773 5.203125 51.3984375 C-0.8129347 57.72275812 -8.02951694 61.65245659 -16.7734375 62.32421875 C-28.01418335 62.56099721 -37.08155499 60.31415202 -45.44921875 52.40625 C-52.89700238 44.5648203 -55.29226146 36.70560797 -55.14257812 25.98828125 C-54.62525338 14.38699872 -49.3937689 7.65318561 -41.359375 -0.1640625 C-28.37952629 -8.61605701 -12.77341121 -9.15054312 0 0 Z M-32.99609375 18.62890625 C-35.9365713 23.1376385 -36.34519451 26.78354635 -35.671875 32.0859375 C-33.42391042 36.41535077 -30.83826914 39.52928655 -26.671875 42.0859375 C-20.65986813 43.54045529 -17.1675408 43.30038353 -11.671875 40.0859375 C-7.46731629 36.24699259 -5.79109432 32.97637855 -5.48046875 27.39453125 C-5.87378057 22.65070911 -7.66458741 18.88539986 -11.21875 15.69921875 C-18.55567689 10.90329177 -27.23781431 11.91940661 -32.99609375 18.62890625 Z " fill="#000000" transform="translate(155.671875,249.9140625)"/>
<path d="M0 0 C6.92978589 5.57395821 11.96945215 13.53169071 13.5859375 22.37890625 C14.62896303 33.88638467 12.0907178 43.43566989 4.64453125 52.37109375 C-2.16363498 59.0113166 -10.62376127 62.64583554 -20.1015625 62.75390625 C-31.14984297 62.53317299 -38.39066112 59.36313496 -46.3203125 51.671875 C-52.7903639 44.58620304 -56.06143519 35.49041157 -55.69140625 25.9140625 C-54.61570999 16.08128969 -50.45142798 8.01537413 -43.15625 1.30078125 C-30.17442256 -8.63386483 -13.55709048 -9.10387144 0 0 Z M-32.7265625 18.94140625 C-35.99048262 23.65595754 -36.14906555 27.73543456 -35.4140625 33.37890625 C-33.60722952 37.75419688 -31.12045825 39.95240315 -27.1015625 42.37890625 C-21.28222226 43.95703242 -17.42115625 43.43925767 -12.1015625 40.62890625 C-8.45939623 37.57965077 -6.88732953 35.05354343 -5.6015625 30.50390625 C-5.36262183 26.52156171 -5.83557033 24.06205464 -7.4140625 20.37890625 C-11.20459492 16.31501813 -14.5284765 13.50461198 -20.1640625 13.12890625 C-25.59602346 13.21747083 -29.06247577 14.88120203 -32.7265625 18.94140625 Z " fill="#000000" transform="translate(322.4140625,249.62109375)"/>
</svg>
